<svg width="16" height="16" viewBox="0 0 16 16" fill="none" xmlns="http://www.w3.org/2000/svg">
<path d="M14.6667 15.5H1.33333C0.873096 15.5 0.5 15.1269 0.5 14.6667V8.58333C0.5 8.34326 0.6036 8.11487 0.784167 7.95667L2.16667 6.75V1.33333C2.16667 0.873096 2.53976 0.5 3 0.5H14.6667C15.1269 0.5 15.5 0.873096 15.5 1.33333V14.6667C15.5 15.1269 15.1269 15.5 14.6667 15.5ZM5.5 4.1075C5.70177 4.10773 5.8966 4.18117 6.04833 4.31417L10.215 7.96C10.395 8.11728 10.4988 8.3443 10.5 8.58333V13.8333H13.8333V2.16667H3.83333V5.29167L4.95083 4.31333C5.1029 4.18045 5.29805 4.1073 5.5 4.1075ZM4.66667 11.3333H6.33333V13.8333H8.83333V8.96417L5.5 6.0475L2.16667 8.96417V13.8333H4.66667V11.3333Z" fill="#909090"/>
</svg>
