<svg width="18" height="14" viewBox="0 0 18 14" fill="none" xmlns="http://www.w3.org/2000/svg">
<path d="M15.6665 13.6667H2.33317C1.44193 13.6934 0.696851 12.9945 0.666504 12.1033V1.89585C0.696848 1.00485 1.44207 0.306203 2.33317 0.333345H15.6665C16.5576 0.306203 17.3028 1.00485 17.3332 1.89585V12.1042C17.3024 12.995 16.5574 13.6934 15.6665 13.6667ZM2.33317 2.00001V11.9908L15.6665 12V2.00918L2.33317 2.00001ZM10.1915 10.3333H3.99984C4.06111 9.6434 4.38762 9.00411 4.91067 8.55001C5.49303 7.97228 6.27551 7.64102 7.09567 7.62501C7.91583 7.64102 8.69832 7.97228 9.28067 8.55001C9.80358 9.00422 10.1301 9.64344 10.1915 10.3333ZM13.9998 9.50001H11.4998V7.83335H13.9998V9.50001ZM7.09567 7.00001C6.64907 7.01553 6.21607 6.84493 5.90008 6.52894C5.58409 6.21295 5.41348 5.77995 5.429 5.33335C5.41373 4.88681 5.58442 4.45396 5.90035 4.13803C6.21628 3.8221 6.64914 3.65141 7.09567 3.66668C7.5422 3.65141 7.97506 3.8221 8.29099 4.13803C8.60692 4.45396 8.77761 4.88681 8.76234 5.33335C8.77786 5.77995 8.60725 6.21295 8.29126 6.52894C7.97528 6.84493 7.54228 7.01553 7.09567 7.00001ZM13.9998 6.16668H10.6665V4.50001H13.9998V6.16668Z" fill="#909090"/>
</svg>
