<svg width="18" height="18" viewBox="0 0 18 18" fill="none" xmlns="http://www.w3.org/2000/svg">
<path d="M8.99984 17.3333C4.39956 17.3283 0.671556 13.6003 0.666504 9V8.83334C0.758113 4.25378 4.52866 0.606635 9.10873 0.667405C13.6888 0.728175 17.3613 4.47408 17.3313 9.05445C17.3014 13.6348 13.5803 17.3324 8.99984 17.3333ZM8.9865 15.6667H8.99984C12.6804 15.663 15.6617 12.6773 15.6598 8.99667C15.658 5.31608 12.6738 2.33334 8.99317 2.33334C5.31257 2.33334 2.32835 5.31608 2.3265 8.99667C2.32466 12.6773 5.30591 15.663 8.9865 15.6667ZM9.83317 14H8.1665V12.3333H9.83317V14ZM9.83317 11.5H8.1665C8.14017 10.4147 8.70495 9.40066 9.6415 8.85167C10.1915 8.43 10.6665 8.06667 10.6665 7.33334C10.6665 6.41286 9.92031 5.66667 8.99984 5.66667C8.07936 5.66667 7.33317 6.41286 7.33317 7.33334H5.6665V7.25834C5.6799 6.06745 6.32761 4.97418 7.36565 4.39034C8.40368 3.8065 9.67434 3.82079 10.699 4.42784C11.7236 5.03488 12.3466 6.14245 12.3332 7.33334C12.2735 8.23252 11.7912 9.05022 11.0332 9.5375C10.3479 9.96766 9.90378 10.694 9.83317 11.5Z" fill="#909090"/>
</svg>
