<svg width="14" height="17" viewBox="0 0 14 17" fill="none" xmlns="http://www.w3.org/2000/svg">
<path d="M12.8335 16.3334H1.16683C0.706592 16.3334 0.333496 15.9603 0.333496 15.5V7.51169C0.333496 7.2907 0.421372 7.07877 0.577663 6.92253L6.411 1.08919C6.5673 0.932712 6.77941 0.844788 7.00058 0.844788C7.22175 0.844788 7.43386 0.932712 7.59016 1.08919L13.4235 6.92253C13.58 7.07859 13.6676 7.29071 13.6668 7.51169V15.5C13.6668 15.9603 13.2937 16.3334 12.8335 16.3334ZM5.3335 10.5H8.66683V14.6667H12.0002V7.85669L7.00016 2.85669L2.00016 7.85669V14.6667H5.3335V10.5Z" fill="#909090"/>
</svg>
