<svg width="14" height="19" viewBox="0 0 14 19" fill="none" xmlns="http://www.w3.org/2000/svg">
<path d="M6.9987 14.1667C7.91536 14.1667 8.66536 13.4167 8.66536 12.5C8.66536 11.5833 7.91536 10.8333 6.9987 10.8333C6.08203 10.8333 5.33203 11.5833 5.33203 12.5C5.33203 13.4167 6.08203 14.1667 6.9987 14.1667ZM11.9987 6.66668H11.1654V5.00001C11.1654 2.70001 9.2987 0.833344 6.9987 0.833344C4.6987 0.833344 2.83203 2.70001 2.83203 5.00001V6.66668H1.9987C1.08203 6.66668 0.332031 7.41668 0.332031 8.33334V16.6667C0.332031 17.5833 1.08203 18.3333 1.9987 18.3333H11.9987C12.9154 18.3333 13.6654 17.5833 13.6654 16.6667V8.33334C13.6654 7.41668 12.9154 6.66668 11.9987 6.66668ZM4.41536 5.00001C4.41536 3.57501 5.5737 2.41668 6.9987 2.41668C8.4237 2.41668 9.58203 3.57501 9.58203 5.00001V6.66668H4.41536V5.00001ZM11.9987 16.6667H1.9987V8.33334H11.9987V16.6667Z" fill="#707070"/>
</svg>
