<svg width="14" height="18" viewBox="0 0 14 18" fill="none" xmlns="http://www.w3.org/2000/svg">
<path d="M7.00016 17.3333C6.07969 17.3333 5.3335 16.5871 5.3335 15.6667H8.66683C8.66683 16.5871 7.92064 17.3333 7.00016 17.3333ZM13.6668 14.8333H0.333496V13.1667L2.00016 12.3333V7.74999C2.00016 4.86499 3.18433 2.99416 5.3335 2.48332V0.666656H8.66683V2.48332C10.816 2.99332 12.0002 4.86332 12.0002 7.74999V12.3333L13.6668 13.1667V14.8333ZM7.00016 3.79166C5.98322 3.72599 5.00248 4.18105 4.396 4.99999C3.87728 5.82045 3.62278 6.78031 3.66683 7.74999V13.1667H10.3335V7.74999C10.3775 6.78031 10.123 5.82048 9.60433 4.99999C8.99784 4.18105 8.0171 3.72599 7.00016 3.79166Z" fill="#909090"/>
</svg>
